<?xml version="1.0" standalone="no"?>
<!DOCTYPE svg PUBLIC "-//W3C//DTD SVG 20010904//EN"
 "http://www.w3.org/TR/2001/REC-SVG-20010904/DTD/svg10.dtd">
<svg version="1.0" xmlns="http://www.w3.org/2000/svg"
 width="518.000000pt" height="250.000000pt" viewBox="0 0 518.000000 250.000000"
 preserveAspectRatio="xMidYMid meet">
<metadata>
Created by potrace 1.15, written by Peter Selinger 2001-2017
</metadata>
<g transform="translate(0.000000,250.000000) scale(0.100000,-0.100000)"
fill="#000000" stroke="none">
<path d="M4197 1913 c-9 -8 -7 -158 2 -283 4 -52 5 -98 1 -103 -3 -4 -37 73
-76 170 -65 168 -71 178 -97 181 -58 7 -60 -1 -53 -233 4 -115 9 -231 12 -256
5 -41 8 -46 26 -41 21 5 21 9 15 226 -4 136 -3 213 3 201 5 -11 24 -60 43
-110 110 -286 110 -286 152 -267 24 11 25 15 25 109 0 54 -3 169 -7 256 -5
138 -8 157 -23 157 -9 0 -20 -3 -23 -7z"/>
<path d="M3731 1839 c-60 -11 -87 -31 -115 -87 -44 -87 -59 -158 -53 -249 12
-173 63 -243 164 -228 58 8 113 57 144 128 20 44 23 68 23 162 0 205 -53 294
-163 274z m72 -107 c14 -24 23 -67 30 -156 10 -118 9 -125 -12 -169 -19 -39
-30 -49 -63 -59 -49 -14 -85 1 -107 46 -18 38 -33 161 -25 216 16 124 46 163
118 158 33 -3 43 -9 59 -36z"/>
<path d="M3375 1769 c-55 -10 -115 -21 -133 -24 -30 -6 -33 -9 -30 -38 2 -18
8 -31 13 -31 6 1 31 5 56 8 l46 7 6 -98 c4 -54 10 -164 13 -245 7 -144 7 -148
29 -148 13 0 27 6 33 13 6 8 6 89 -3 247 -6 129 -10 238 -8 242 1 3 26 9 53
13 49 7 50 8 50 41 0 39 8 38 -125 13z"/>
<path d="M2975 1701 c-17 -7 -27 -46 -76 -312 -57 -314 -57 -325 -11 -300 15
8 22 26 27 69 3 32 10 64 15 72 9 14 168 52 174 41 2 -3 11 -32 20 -65 17 -57
18 -58 48 -52 18 3 33 8 35 10 2 2 -33 125 -79 272 -79 253 -85 269 -108 271
-14 1 -34 -2 -45 -6z m75 -240 c17 -56 29 -109 27 -116 -5 -12 -125 -41 -134
-31 -5 4 32 250 44 291 5 18 7 17 19 -10 7 -17 27 -77 44 -134z"/>
<path d="M2702 1648 c-6 -7 -36 -78 -68 -158 -32 -80 -62 -148 -67 -151 -5 -4
-1 -18 9 -34 9 -15 25 -39 33 -55 104 -184 115 -199 141 -193 53 12 53 15 0
104 -27 46 -54 91 -59 99 -6 8 -22 34 -36 58 l-26 42 61 137 c33 76 60 143 60
150 0 17 -34 17 -48 1z"/>
<path d="M2467 1607 c-17 -12 -17 -26 -3 -247 23 -348 24 -360 45 -360 9 0 25
6 34 13 16 11 17 26 2 247 -22 348 -24 360 -44 360 -9 0 -25 -6 -34 -13z"/>
<path d="M2281 1577 c-26 -12 -26 -3 0 -325 7 -81 8 -137 2 -143 -5 -5 -52 75
-118 207 l-109 216 -46 -7 c-77 -11 -75 5 -49 -339 l23 -307 25 6 c14 4 29 10
33 13 4 4 -1 118 -12 252 -23 290 -22 260 -11 260 5 0 55 -91 111 -202 129
-255 133 -261 174 -253 62 13 61 4 39 325 -11 160 -24 295 -29 300 -5 4 -20 3
-33 -3z"/>
<path d="M1738 1483 c-10 -2 -18 -12 -18 -21 0 -35 41 -578 46 -599 3 -17 11
-23 32 -23 15 0 32 4 38 10 6 6 2 107 -13 292 -12 156 -22 298 -22 316 -1 33
-14 38 -63 25z"/>
<path d="M1435 1423 c-86 -11 -191 -35 -203 -47 -11 -10 -8 -69 15 -332 l28
-319 35 3 c19 1 39 7 43 11 5 5 3 68 -3 141 -6 73 -8 136 -3 140 4 4 25 11 46
14 33 6 41 4 65 -22 15 -16 42 -67 61 -113 43 -106 50 -113 95 -105 19 4 37
10 40 15 6 10 -87 210 -111 237 -10 11 -25 23 -33 26 -11 3 -4 17 26 51 57 64
70 146 38 226 -23 58 -69 82 -139 74z m34 -101 c35 -35 50 -131 27 -167 -16
-24 -92 -55 -137 -55 -27 0 -27 1 -34 78 -3 42 -8 93 -11 113 l-5 37 48 10
c74 15 83 14 112 -16z"/>
<path d="M740 1301 c-115 -23 -120 -26 -120 -70 1 -81 60 -625 69 -634 14 -14
193 28 269 64 75 36 125 96 149 178 23 80 20 227 -7 310 -51 159 -139 196
-360 152z m178 -75 c75 -39 111 -130 112 -280 0 -159 -36 -208 -177 -242 -40
-10 -75 -15 -78 -12 -4 4 -55 483 -55 520 0 8 89 25 138 27 18 0 45 -5 60 -13z"/>
</g>
</svg>
